<svg style="display: none" xmlns="http://www.w3.org/2000/svg">
  <symbol viewBox="0 0 9 15" id="trick">
    <path d="M9 5.59824C9 4.98747 8.8836 4.38267 8.65746 3.81839C8.43131 3.25411 8.09984 2.74139 7.68198 2.3095C7.26412 1.87762 6.76804 1.53503 6.22208 1.3013C5.67611 1.06757 5.09095 0.947266 4.5 0.947266C3.90905 0.947266 3.32389 1.06757 2.77792 1.3013C2.23196 1.53503 1.73588 1.87762 1.31802 2.3095C0.900156 2.74139 0.568688 3.25411 0.342542 3.81839C0.116396 4.38267 -8.80582e-09 4.98747 0 5.59824C0 6.5198 0.262929 7.37691 0.710357 8.0998H0.705214L4.5 14.2358L8.29479 8.0998H8.29029C8.7537 7.35337 9.00003 6.48513 9 5.59824ZM4.5 7.59152C3.98851 7.59152 3.49797 7.38151 3.13629 7.0077C2.77462 6.63389 2.57143 6.12689 2.57143 5.59824C2.57143 5.06959 2.77462 4.56259 3.13629 4.18878C3.49797 3.81497 3.98851 3.60497 4.5 3.60497C5.01149 3.60497 5.50203 3.81497 5.86371 4.18878C6.22538 4.56259 6.42857 5.06959 6.42857 5.59824C6.42857 6.12689 6.22538 6.63389 5.86371 7.0077C5.50203 7.38151 5.01149 7.59152 4.5 7.59152Z"/>
  </symbol>

  <symbol viewBox="0 0 24 24" id="seach">
    <path d="M16.1482 14.2219C17.4797 12.4049 18.0761 10.1522 17.818 7.91435C17.5599 5.67652 16.4664 3.61867 14.7562 2.15248C13.046 0.68629 10.8453 -0.0801007 8.59427 0.0066338C6.34328 0.0933683 4.20805 1.02683 2.61575 2.62027C1.02345 4.21371 0.0915134 6.34961 0.00638964 8.60066C-0.0787342 10.8517 0.689231 13.0519 2.15664 14.761C3.62405 16.4702 5.68269 17.5622 7.9207 17.8187C10.1587 18.0752 12.411 17.4772 14.2271 16.1444H14.2257C14.267 16.1994 14.311 16.2516 14.3605 16.3025L19.6548 21.5968C19.9126 21.8548 20.2624 21.9999 20.6272 22C20.992 22.0001 21.3419 21.8553 21.5999 21.5975C21.8579 21.3396 22.003 20.9899 22.0031 20.6251C22.0032 20.2603 21.8584 19.9104 21.6006 19.6524L16.3063 14.3581C16.2571 14.3083 16.2043 14.2637 16.1482 14.2219ZM16.5029 8.93587C16.5029 9.9291 16.3073 10.9126 15.9272 11.8302C15.5471 12.7478 14.99 13.5816 14.2877 14.2839C13.5854 14.9862 12.7516 15.5433 11.834 15.9234C10.9164 16.3035 9.93288 16.4992 8.93966 16.4992C7.94643 16.4992 6.96293 16.3035 6.04532 15.9234C5.1277 15.5433 4.29393 14.9862 3.59161 14.2839C2.88929 13.5816 2.33219 12.7478 1.9521 11.8302C1.57201 10.9126 1.37638 9.9291 1.37638 8.93587C1.37638 6.92997 2.17322 5.00622 3.59161 3.58783C5.01 2.16944 6.93375 1.37259 8.93966 1.37259C10.9456 1.37259 12.8693 2.16944 14.2877 3.58783C15.7061 5.00622 16.5029 6.92997 16.5029 8.93587Z"/>
  </symbol>

  <symbol viewBox="0 0 17 16" id="down">
    <path d="M4.76648 6L8.76648 10L12.7665 6" stroke-width="1.33333" stroke-linecap="round" stroke-linejoin="round"/>
  </symbol>

  <symbol viewBox="0 0 20 20" id="btnWA">
    <rect width="20" height="20" rx="10" fill="#FAFAFA"/>
    <path d="M14.3558 7.44176C12.8669 5.14641 9.82713 4.46401 7.46975 5.89085C5.1744 7.31768 4.42996 10.4195 5.91884 12.7149L6.04291 12.901L5.54662 14.7621L7.40771 14.2658L7.59382 14.3898C8.40029 14.8241 9.2688 15.0722 10.1373 15.0722C11.0679 15.0722 11.9984 14.8241 12.8049 14.3278C15.1002 12.8389 15.7826 9.79914 14.3558 7.44176ZM13.053 12.2186C12.8049 12.5908 12.4947 12.8389 12.0604 12.901C11.8123 12.901 11.5021 13.025 10.2614 12.5287C9.20677 12.0325 8.33826 11.226 7.71789 10.2954C7.34568 9.86118 7.15957 9.30285 7.09753 8.74452C7.09753 8.24823 7.28364 7.81397 7.59382 7.50379C7.71789 7.37972 7.84197 7.31768 7.96604 7.31768H8.27622C8.40029 7.31768 8.52437 7.31768 8.5864 7.56583C8.71048 7.87601 9.02066 8.62045 9.02066 8.68248C9.08269 8.74452 9.08269 8.86859 9.02066 8.93063C9.08269 9.0547 9.02066 9.17878 8.95862 9.24081C8.89659 9.30285 8.83455 9.42692 8.77251 9.48896C8.64844 9.55099 8.5864 9.67507 8.64844 9.79914C8.89659 10.1714 9.20677 10.5436 9.51695 10.8538C9.88917 11.1639 10.2614 11.4121 10.6956 11.5982C10.8197 11.6602 10.9438 11.6602 11.0058 11.5362C11.0679 11.4121 11.378 11.1019 11.5021 10.9778C11.6262 10.8538 11.6882 10.8538 11.8123 10.9158L12.8049 11.4121C12.929 11.4741 13.053 11.5362 13.1151 11.5982C13.1771 11.7843 13.1771 12.0325 13.053 12.2186Z"/>
  </symbol>

  <symbol viewBox="0 0 11 10" id="btnTG">
    <path d="M9.80063 0.233414C9.80063 0.233414 10.7047 -0.19277 10.629 0.842167C10.6041 1.26835 10.3782 2.76013 10.2023 4.37344L9.59958 9.15289C9.59958 9.15289 9.54932 9.85307 9.09719 9.97488C8.64529 10.0964 7.96721 9.54869 7.84156 9.42689C7.74103 9.33546 5.95811 7.96548 5.33029 7.29597C5.15437 7.11312 4.95332 6.74798 5.35542 6.32179L7.99211 3.27746C8.29345 2.91232 8.5948 2.05996 7.33916 3.09489L3.82311 5.98675C3.82311 5.98675 3.42124 6.29141 2.668 6.01742L1.0354 5.40838C1.0354 5.40838 0.432711 4.95182 1.4624 4.49525C3.9739 3.06451 7.06295 1.60339 9.80017 0.233414H9.80063Z"/>
  </symbol>

  <symbol viewBox="0 0 10 11" id="btnTel">
    <path fill-rule="evenodd" clip-rule="evenodd" d="M7.38936 0.281787C5.77422 -0.0939288 4.09929 -0.0939288 2.48415 0.281787L2.31011 0.321854C1.85579 0.427558 1.43853 0.662259 1.10466 0.999885C0.770801 1.33751 0.533415 1.76484 0.418875 2.23441C0.00946371 3.91325 0.00946371 5.67192 0.418875 7.35077C0.528106 7.79859 0.749177 8.20841 1.05967 8.53866C1.37017 8.86891 1.75906 9.10785 2.18691 9.23127L2.42562 10.7143C2.43324 10.7614 2.45285 10.8055 2.48242 10.842C2.51198 10.8786 2.55041 10.9062 2.59371 10.922C2.63701 10.9378 2.68359 10.9413 2.72861 10.932C2.77362 10.9227 2.81543 10.901 2.84966 10.8692L4.25166 9.5641C5.30411 9.63093 6.36036 9.54335 7.38936 9.30393L7.5639 9.26386C8.01822 9.15815 8.43549 8.92345 8.76935 8.58583C9.10321 8.2482 9.3406 7.82087 9.45514 7.3513C9.86451 5.67245 9.86451 3.91379 9.45514 2.23495C9.34056 1.76531 9.1031 1.33793 8.76914 1.0003C8.43518 0.662666 8.0178 0.428004 7.56339 0.322388L7.38936 0.281787ZM2.91743 2.19114C2.82202 2.17669 2.72473 2.19667 2.64175 2.24777H2.63456C2.44205 2.3653 2.26853 2.51328 2.12068 2.68744C1.99747 2.83542 1.93074 2.98501 1.91328 3.12925C1.90302 3.21473 1.9102 3.30128 1.93433 3.38301L1.94357 3.38836C2.08218 3.812 2.26288 4.21962 2.48363 4.6032C2.76827 5.14197 3.11854 5.64025 3.52576 6.0857L3.53809 6.10387L3.55759 6.11882L3.5694 6.13325L3.58377 6.14607C4.01332 6.57113 4.49326 6.93737 5.01196 7.23591C5.6049 7.57194 5.96477 7.73061 6.18089 7.79685V7.80006C6.24404 7.82036 6.30153 7.82944 6.35954 7.82944C6.54361 7.81529 6.71782 7.73743 6.85443 7.60827C7.02127 7.45441 7.16245 7.2733 7.27231 7.0719V7.06816C7.37549 6.86515 7.34059 6.67389 7.19171 6.54407C6.89267 6.27217 6.56932 6.03066 6.22607 5.82286C5.99608 5.69304 5.7625 5.77157 5.66804 5.90299L5.46629 6.16797C5.36259 6.2994 5.1747 6.28123 5.1747 6.28123L5.16956 6.28444C3.76756 5.91208 3.39332 4.43492 3.39332 4.43492C3.39332 4.43492 3.37586 4.23405 3.50574 4.13147L3.75832 3.91992C3.87947 3.81735 3.96367 3.5748 3.83378 3.33547C3.63542 2.97794 3.40381 2.64154 3.14228 2.33111C3.08524 2.25805 3.00525 2.20829 2.9164 2.1906L2.91743 2.19114ZM5.2861 1.54899C5.21802 1.54899 5.15273 1.57713 5.10459 1.62723C5.05646 1.67732 5.02941 1.74526 5.02941 1.81611C5.02941 1.88695 5.05646 1.95489 5.10459 2.00499C5.15273 2.05508 5.21802 2.08322 5.2861 2.08322C5.9355 2.08322 6.47454 2.30386 6.90115 2.72697C7.12035 2.9583 7.2913 3.23236 7.40322 3.5326C7.51564 3.83337 7.56698 4.15445 7.55363 4.47606C7.55222 4.51113 7.55745 4.54616 7.56905 4.57913C7.58064 4.6121 7.59836 4.64238 7.62119 4.66822C7.66731 4.72042 7.73146 4.75142 7.79954 4.75439C7.86761 4.75737 7.93404 4.73208 7.98419 4.68409C8.03435 4.6361 8.06414 4.56934 8.067 4.49849C8.08292 4.10289 8.01982 3.70814 7.88167 3.33921C7.74293 2.96852 7.53256 2.63141 7.26358 2.34874L7.25845 2.34339C6.72917 1.81717 6.05923 1.54899 5.2861 1.54899ZM5.26864 2.42727C5.20057 2.42727 5.13528 2.45541 5.08714 2.50551C5.039 2.5556 5.01196 2.62354 5.01196 2.69439C5.01196 2.76523 5.039 2.83317 5.08714 2.88327C5.13528 2.93336 5.20057 2.9615 5.26864 2.9615H5.27737C5.74556 2.99623 6.08643 3.15864 6.32515 3.42522C6.57002 3.69981 6.69683 4.04119 6.68707 4.46323C6.68551 4.53408 6.71105 4.60267 6.75808 4.65391C6.80511 4.70516 6.86977 4.73487 6.93785 4.73649C7.00593 4.73812 7.07184 4.71154 7.12108 4.6626C7.17033 4.61366 7.19887 4.54636 7.20044 4.47552C7.21276 3.92152 7.04129 3.44338 6.70145 3.06194V3.06087C6.3539 2.67302 5.87698 2.46787 5.30304 2.4278L5.29431 2.42674L5.26864 2.42727ZM5.25889 3.32211C5.22454 3.31896 5.18993 3.32304 5.15712 3.33411C5.12432 3.34518 5.094 3.36302 5.06797 3.38656C5.04194 3.4101 5.02073 3.43885 5.00562 3.47111C4.9905 3.50336 4.98179 3.53846 4.97999 3.57429C4.9782 3.61013 4.98336 3.64598 4.99517 3.6797C5.00699 3.71341 5.02521 3.7443 5.04875 3.77053C5.07228 3.79675 5.10066 3.81777 5.13218 3.83234C5.1637 3.8469 5.19771 3.8547 5.23219 3.85528C5.44678 3.86703 5.58385 3.93434 5.67009 4.02463C5.75685 4.11545 5.82154 4.26129 5.83334 4.48941C5.83398 4.52526 5.84155 4.5606 5.8556 4.59334C5.86964 4.62608 5.88988 4.65554 5.9151 4.67997C5.94032 4.7044 5.97 4.72329 6.00239 4.73553C6.03477 4.74776 6.06919 4.75309 6.1036 4.75118C6.138 4.74928 6.17168 4.74019 6.20264 4.72446C6.2336 4.70872 6.26119 4.68666 6.28378 4.65959C6.30637 4.63252 6.3235 4.601 6.33413 4.5669C6.34477 4.53279 6.34869 4.49681 6.34568 4.4611C6.32926 4.14056 6.23274 3.85741 6.0351 3.64906C5.83642 3.44071 5.56588 3.33921 5.25889 3.32211Z"/>
  </symbol>

  <symbol viewBox="0 0 10 18" id="right">
    <path d="M0.799927 1L8.89651 9.09658L0.799927 17"></path>
  </symbol>

  <symbol viewBox="0 0 10 18" id="left">
    <path d="M9.09656 1L0.999973 9.09658L9.09656 17"></path>
  </symbol>

  <symbol viewBox="0 0 34 34" id="seach-card">
    <path d="M 21.2815 14.4065 C 21.2815 14.9038 21.084 15.3807 20.7323 15.7324 C 20.3807 16.084 19.9038 16.2815 19.4065 16.2815 H 16.2815 V 19.4065 C 16.2815 19.9038 16.084 20.3807 15.7324 20.7323 C 15.3807 21.084 14.9038 21.2815 14.4065 21.2815 C 13.9092 21.2815 13.4323 21.084 13.0807 20.7323 C 12.7291 20.3807 12.5315 19.9038 12.5315 19.4065 V 16.2815 H 9.40652 C 8.90924 16.2815 8.43233 16.084 8.0807 15.7324 C 7.72907 15.3807 7.53152 14.9038 7.53152 14.4065 C 7.53152 13.9092 7.72907 13.4323 8.0807 13.0807 C 8.43233 12.7291 8.90924 12.5315 9.40652 12.5315 H 12.5315 V 9.40652 C 12.5315 8.90924 12.7291 8.43233 13.0807 8.0807 C 13.4323 7.72907 13.9092 7.53152 14.4065 7.53152 C 14.9038 7.53152 15.3807 7.72907 15.7324 8.0807 C 16.084 8.43233 16.2815 8.90924 16.2815 9.40652 V 12.5315 H 19.4065 C 19.9038 12.5315 20.3807 12.7291 20.7323 13.0807 C 21.084 13.4323 21.2815 13.9092 21.2815 14.4065 Z M 33.2331 33.2331 C 33.0589 33.4079 32.8519 33.5466 32.624 33.6412 C 32.3961 33.7359 32.1517 33.7846 31.905 33.7846 C 31.6582 33.7846 31.4138 33.7359 31.1859 33.6412 C 30.958 33.5466 30.751 33.4079 30.5768 33.2331 L 23.1565 25.8128 C 20.2573 28.0376 16.6203 29.0763 12.9833 28.7182 C 9.34635 28.3601 5.98179 26.632 3.57213 23.8844 C 1.16248 21.1368 -0.111831 17.5755 0.00770964 13.9229 C 0.12725 10.2703 1.63169 6.79999 4.21584 4.21584 C 6.79999 1.63169 10.2703 0.12725 13.9229 0.00770964 C 17.5755 -0.111831 21.1368 1.16248 23.8844 3.57213 C 26.632 5.98179 28.3601 9.34635 28.7182 12.9833 C 29.0763 16.6203 28.0376 20.2573 25.8128 23.1565 L 33.2409 30.5831 C 33.591 30.9357 33.7868 31.4128 33.7853 31.9097 C 33.7839 32.4066 33.5853 32.8826 33.2331 33.2331 Z M 14.4065 25.0315 C 16.508 25.0315 18.5622 24.4084 20.3095 23.2409 C 22.0567 22.0734 23.4186 20.414 24.2227 18.4725 C 25.0269 16.5311 25.2373 14.3947 24.8274 12.3337 C 24.4174 10.2726 23.4055 8.37945 21.9195 6.89352 C 20.4336 5.40758 18.5404 4.39565 16.4794 3.98568 C 14.4183 3.57571 12.282 3.78612 10.3405 4.5903 C 8.39905 5.39449 6.73965 6.75632 5.57216 8.50359 C 4.40467 10.2509 3.78152 12.3051 3.78152 14.4065 C 3.78483 17.2234 4.90531 19.924 6.89717 21.9159 C 8.88903 23.9077 11.5896 25.0282 14.4065 25.0315 Z"/></path>
  </symbol>
</svg>

